<svg xmlns="http://www.w3.org/2000/svg" viewBox="0 0 1050 600" width="1050" height="600">
  <defs>
    <g id="knot">
      <path d="M24.0 17.1L26.3 17.2L28.5 17.5L30.6 18.0L32.7 18.7L34.6 19.6L36.4 20.6L38.0 21.8L39.4 23.1L40.6 24.5L41.5 25.9L42.2 27.4L42.7 28.9L42.9 30.4L42.8 31.8L42.5 33.1L41.9 34.3L41.1 35.5L40.1 36.4L38.9 37.2L37.6 37.7L36.0 38.1L34.4 38.2L32.7 38.1L30.9 37.8L29.1 37.2L27.3 36.4L25.5 35.4L23.8 34.2L22.1 32.7L20.6 31.1L19.2 29.3L18.0 27.5L17.0 25.4L16.1 23.4L15.5 21.3L15.1 19.1L14.9 17.0L14.9 15.0L15.1 13.0L15.5 11.1L16.1 9.4L16.9 7.9L17.8 6.5L18.9 5.4L20.1 4.5L21.3 3.8L22.7 3.4L24.0 3.3L25.3 3.4L26.7 3.8L27.9 4.5L29.1 5.4L30.2 6.5L31.1 7.9L31.9 9.4L32.5 11.1L32.9 13.0L33.1 15.0L33.1 17.0L32.9 19.1L32.5 21.3L31.9 23.4L31.0 25.4L30.0 27.4L28.8 29.3L27.4 31.1L25.9 32.7L24.2 34.2L22.5 35.4L20.7 36.4L18.9 37.2L17.1 37.8L15.3 38.1L13.6 38.2L12.0 38.1L10.4 37.7L9.1 37.2L7.9 36.4L6.9 35.5L6.1 34.4L5.5 33.1L5.2 31.8L5.1 30.4L5.3 28.9L5.8 27.4L6.5 25.9L7.4 24.5L8.6 23.1L10.0 21.8L11.6 20.6L13.4 19.6L15.3 18.7L17.4 18.0L19.5 17.5L21.7 17.2L24.0 17.1Z" stroke="#D99A4E" stroke-width="2.4" fill="none" stroke-linejoin="round"/>
      <circle cx="24" cy="24.6" r="3.1" fill="#F0C987"/>
    </g>
  </defs>

  <rect width="1050" height="600" fill="#0C0F16"/>
  <path d="M1050 80 C 900 140, 940 300, 1000 380 C 1030 420, 1040 470, 1010 600" fill="none" stroke="#D99A4E" stroke-width="1.5" stroke-opacity="0.35"/>
  <path d="M1050 130 C 930 190, 970 320, 1020 420" fill="none" stroke="#D99A4E" stroke-width="1" stroke-opacity="0.18"/>

  <use href="#knot" transform="translate(64 56) scale(1.9)"/>
  <text x="176" y="105" font-family="Satoshi, 'Instrument Sans', sans-serif" font-weight="700" font-size="42" letter-spacing="-0.5" fill="#FFF6E9">Thread <tspan fill="#D99A4E">&amp;</tspan> Core</text>
  <text x="178" y="136" font-family="'JetBrains Mono', monospace" font-size="15" letter-spacing="9" fill="#9AA3B2">SYSTEMS PVT LTD</text>

  <text x="66" y="388" font-family="Satoshi, 'Instrument Sans', sans-serif" font-weight="700" font-size="60" letter-spacing="-1" fill="#FFF6E9">Prashant Agarwal</text>
  <text x="68" y="430" font-family="'JetBrains Mono', monospace" font-size="21" letter-spacing="3" fill="#D99A4E">FOUNDER &amp; PRINCIPAL ARCHITECT</text>

  <line x1="66" y1="472" x2="400" y2="472" stroke="#232A3A" stroke-width="1.5"/>

  <text x="66" y="516" font-family="'JetBrains Mono', monospace" font-size="21" fill="#9AA3B2">+91 78750 46852 &#183; agarawal.prashant@gmail.com</text>
  <text x="66" y="552" font-family="'JetBrains Mono', monospace" font-size="21" fill="#9AA3B2">linkedin.com/in/agarawal-prashant &#183; Pune, India</text>
</svg>
